<?xml version="1.0" encoding="utf-8"?>
<!-- Generator: Adobe Illustrator 25.2.0, SVG Export Plug-In . SVG Version: 6.00 Build 0)  -->
<svg version="1.1" id="Capa_1" xmlns="http://www.w3.org/2000/svg" xmlns:xlink="http://www.w3.org/1999/xlink" x="0px" y="0px"
	 viewBox="0 0 31.9 32" style="enable-background:new 0 0 31.9 32;" xml:space="preserve">
<style type="text/css">
	.st0{fill:#575756;}
</style>
<g>
	<path class="st0" d="M6.7,27.4c0.3-0.5,0.7-1,1.1-1.4c1-1.2,2.8-1.4,4-0.4c0.2,0.1,0.4,0.1,0.6,0.1c3.1-0.7,6.3-0.8,9.3-0.3
		c0.2,0,0.2,0,0.4,0c0.3-0.1,0.6-0.2,0.9-0.3c0.3-0.1,0.5-0.1,0.8-0.2c-2.7-1.9-12.1-2.4-16,0.6C8,25.3,8,25.2,8.1,25
		c1.4-2.2,3.4-3.2,5.9-3.4c3.2-0.4,6.3,0.4,9.5,1.1c0.9,0.2,1.8,0.5,2.6,0.7c0.2,0.1,0.6,0,0.7-0.1c0.1-0.2,0.1-0.5-0.1-0.8
		c-0.4-0.4-0.8-0.8-1.4-1c-1.8-0.6-3.7-1.2-5.5-1.6c-2.7-0.6-5.4-0.7-8.2-0.4c-0.5,0.1-1.1,0.2-1.7,0.2c-0.2-1-0.5-2-0.5-3.1
		C9.2,14.2,9,11.8,8.7,9.3C8.6,8.2,8.3,7.1,7.9,5.9C7.1,3.8,5.2,2.4,3,2.2C2.5,2.1,1.8,1.9,1.3,1.9C0.8,1.9,0.2,2.2,0.1,2.8
		c-0.2,0.6,0,1.4,0.5,1.8c0.5,0.4,1.1,0.3,1.5-0.1s1-0.5,1.5-0.2c1.1,0.3,1.9,1,2.4,2C6.6,7.4,7,8.7,7,10c0.2,2.1,0.2,4.3,0.3,6.3
		c0.1,1.1,0.2,2.4,0.3,3.5c0,0.2,0,0.4-0.2,0.5c-0.7,0.5-1.1,1.1-1.3,1.9c-0.5,1.7-0.5,3.5,0.3,5C6.6,27.3,6.7,27.4,6.7,27.4
		C6.7,27.4,6.7,27.4,6.7,27.4z"/>
	<path class="st0" d="M10.2,8L17,7.7c-0.3,0.9-0.5,1.7-0.8,2.4c-0.1,0.2-0.4,0.2-0.5,0.2c-1.4,0.2-2.7,0.2-4,0.4c0,0.1,0,0.2,0,0.2
		h4.4c-0.2,0.7-0.2,1.3-0.4,1.8c-0.1,0.2-0.3,0.3-0.5,0.4c-0.8,0.2-1.6,0.5-2.4,0.7v0.2h2.8v1.5h0.1c0.1-0.4,0.2-0.7,0.3-1.1
		c0.1-0.2,0.3-0.4,0.5-0.4c0.8,0,1.6,0.2,2.4,0.2l-0.3,2.8h0.2l1-2.7l2.5,0.6c-0.4,1.2-0.8,2.4-1.1,3.6h0.1c0.5-0.9,1.1-1.9,1.6-2.8
		c0.1-0.3,0.4-0.5,0.7-0.3c0.1,0,0.1,0.1,0.2,0.1c0.9,0.5,1.9,0.9,2.9,1.4l-1.3,2.4c2.6-2.2,5.1-4.5,6.5-7.7
		c0.2-0.6,0.4-1.2,0.5-1.9c0.1-0.9-0.4-1.8-1.2-2.3c-1.1-0.7-2.4-1.1-3.7-1.2C23.5,6,20,6.1,16.7,6.7c-2.2,0.3-4.4,0.7-6.6,1.1
		C10.1,8,10.1,8,10.2,8z M28.8,12.2l-2.9-0.8l2.4-2.5C29.3,9.7,29.5,10.9,28.8,12.2z M23.7,14.3c0.4-0.5,0.7-0.9,1-1.4
		c0.1-0.2,0.2-0.2,0.5-0.2c1,0.3,2.1,0.6,3.1,0.9l-1.1,2L23.7,14.3z M21.4,10.6l2.1-2.8L25.8,8l0.2,0.1c-0.6,0.9-1.2,1.8-1.8,2.8
		C24,10.9,23.8,11,23.7,11C23,10.9,22.3,10.8,21.4,10.6L21.4,10.6z M20,13.3c0.2-0.5,0.5-0.9,0.7-1.3c0.1-0.1,0.2-0.2,0.4-0.2
		c0.8,0.2,1.5,0.3,2.2,0.5c-0.3,0.6-0.5,1.1-0.8,1.6L20,13.3z M19.7,10.5c-0.8,0-1.6,0-2.6,0c0.5-1,1-1.8,1.4-2.5
		c0.1-0.2,0.2-0.2,0.4-0.2c0.9,0,1.8,0,2.8,0c-0.5,0.9-1.1,1.8-1.6,2.6C20,10.4,19.9,10.5,19.7,10.5L19.7,10.5z M17.3,11.3
		c0.7,0.1,1.5,0.2,2.1,0.3c-0.4,1.6-0.4,1.6-1.9,1.5H16c0.2-0.5,0.5-1,0.6-1.5C16.7,11.3,16.9,11.2,17.3,11.3
		C17.3,11.2,17.3,11.3,17.3,11.3L17.3,11.3z"/>
	<path class="st0" d="M22.2,30c1.7-0.2,3-1.5,3.1-3.1c0.1-0.9-0.7-1.8-1.6-1.8c-0.2,0-0.3,0-0.4,0c-1.5,0.2-2.7,1.3-3,2.8
		c-0.3,0.9,0.2,1.9,1.1,2.1C21.8,30,22,30.1,22.2,30z M21.3,28.4c0-0.1-0.1-0.2-0.1-0.3c0-0.2,0-0.2,0.1-0.4c0-0.1,0-0.1,0.1-0.2
		v-0.1v-0.1c0.1-0.2,0.2-0.3,0.2-0.4l0.1-0.1l0.1-0.1c0-0.1,0.1-0.1,0.1-0.2c0.1-0.1,0.2-0.1,0.2-0.2h0.1l0.2-0.1
		c0.1-0.1,0.2-0.1,0.3-0.1h0.2h0.2c0.5,0,1,0.5,1,1l0,0c-0.1,0.8-0.8,1.5-1.5,1.5c-0.3,0-0.5-0.1-0.8-0.2v-0.1
		c0-0.1-0.1-0.1-0.1-0.2v-0.1C21.3,28.5,21.3,28.4,21.3,28.4L21.3,28.4z"/>
	<path class="st0" d="M7,28.3C7,29.2,7.7,30,8.6,30l0,0c1.7,0,3.1-1.2,3.4-2.9c0.2-0.9-0.5-1.8-1.5-2c-0.1,0-0.2,0-0.2,0
		C8.6,25.2,7.1,26.5,7,28.3z M7.9,28.1L7.9,28.1c0-0.1,0-0.2,0-0.2v-0.1v-0.1v-0.1l0,0v-0.1v-0.1v0c0-0.1,0.1-0.2,0.1-0.2L8,27.2
		l0.1-0.1l0.1-0.1L8.3,27l0.1-0.1l0.1-0.1c0.1-0.1,0.2-0.2,0.2-0.2l0.1-0.1l0,0l0.1-0.1c0.1,0,0.2-0.1,0.2-0.1H9h0.1h0.2
		c0.4,0,0.8,0.2,0.8,0.6v0.1c0,0.1,0.1,0.2,0.1,0.2c0,0,0,0,0,0.1v0.1c0,0.8-0.7,1.5-1.5,1.6c-0.5,0-1-0.4-1-0.9v-0.1L7.9,28.1z"/>
	<path class="st0" d="M22.1,26.7l-0.2,0.2C21.9,26.8,22,26.8,22.1,26.7z"/>
</g>
</svg>
